<?xml version="1.0" encoding="UTF-8"?>
<svg width="752pt" height="752pt" version="1.1" viewBox="0 0 752 752" xmlns="http://www.w3.org/2000/svg">
 <g>
  <path d="m376 288.68c-47.359 0-87.316 38.477-87.316 87.316s38.477 87.316 87.316 87.316 87.316-38.477 87.316-87.316c0-48.836-39.957-87.316-87.316-87.316zm-34.039 51.801c-7.3984 0-13.32-5.918-13.32-13.32 0-7.3984 5.918-13.32 13.32-13.32 7.3984 0 13.32 5.918 13.32 13.32 0 7.3984-5.918 13.32-13.32 13.32z"/>
  <path d="m529.91 201.37h-307.83c-13.316 0-23.676 10.359-23.676 22.199v303.39c0 11.84 10.359 22.199 22.199 22.199h307.83c11.84 0 22.199-10.359 22.199-22.199l-0.003907-303.39c2.9609-11.84-7.3984-22.199-20.719-22.199zm-153.91 291.55c-63.637 0-116.91-51.797-116.91-116.91 0-65.117 51.797-116.91 116.91-116.91s116.91 51.797 116.91 116.91c0.003907 65.113-53.273 116.91-116.91 116.91zm125.8-242.71c-7.3984 0-13.32-5.918-13.32-13.32 0-7.3984 5.918-13.32 13.32-13.32 7.3984 0 13.32 5.918 13.32 13.32 0 7.3984-4.4414 13.32-13.32 13.32z"/>
 </g>
</svg>
